PathFileType	3	(X/Y/Z)	results
DataRate	CameraRate	NumFrames	NumMarkers	Units	OrigDataRate	OrigDataStartFrame	OrigNumFrames
30.0	30.0	4	85	mm	30.0	204	233
Frame#	Time	head			nose			neck			shoulder_r			elbow_r			wrist_r			shoulder_l			elbow_l			wrist_l			hip_r			knee_r			ankle_r			hip_l			knee_l			ankle_l			heel_r			heel_l			mtoe_r			ltoe_r			mtoe_l			ltoe_l			asis_l			asis_r			psi_r			psi_l			mhnd_r			lhnd_r			mhnd_l			lhnd_l			l_lat_knee			r_med_wrist			l_lat_ankle			r_med_ankle			r_lat_knee			xiphoid			l_med_ankle			r_med_knee			l_med_elbow			navel			r_lat_elbow			r_lat_wrist			l_med_wrist			l_lat_elbow			l_med_knee			r_med_elbow			r_lat_ankle			l_lat_wrist			chin			T10			r_eye			l_eye			l_ear			r_ear			spinal_cord_8			spinal_cord_12			spinal_cord_27			spinal_cord_33			up_arm_r_0			up_arm_r_5			up_arm_l_0			up_arm_l_5			front_torso_11			front_torso_7			front_torso_4			front_torso_1			front_torso_10			thigh_r_2			thigh_r_3			thigh_l_1			thigh_l_5			shank_l_0			shank_l_4			shank_r_1			shank_r_2			foot_r_1			foot_r_3			foot_r_5			foot_r_6			foot_r_7			foot_l_1			foot_l_7			foot_l_0			foot_l_4			foot_l_5			foot_l_6			
		X1	Y1	Z1	X2	Y2	Z2	X3	Y3	Z3	X4	Y4	Z4	X5	Y5	Z5	X6	Y6	Z6	X7	Y7	Z7	X8	Y8	Z8	X9	Y9	Z9	X10	Y10	Z10	X11	Y11	Z11	X12	Y12	Z12	X13	Y13	Z13	X14	Y14	Z14	X15	Y15	Z15	X16	Y16	Z16	X17	Y17	Z17	X18	Y18	Z18	X19	Y19	Z19	X20	Y20	Z20	X21	Y21	Z21	X22	Y22	Z22	X23	Y23	Z23	X24	Y24	Z24	X25	Y25	Z25	X26	Y26	Z26	X27	Y27	Z27	X28	Y28	Z28	X29	Y29	Z29	X30	Y30	Z30	X31	Y31	Z31	X32	Y32	Z32	X33	Y33	Z33	X34	Y34	Z34	X35	Y35	Z35	X36	Y36	Z36	X37	Y37	Z37	X38	Y38	Z38	X39	Y39	Z39	X40	Y40	Z40	X41	Y41	Z41	X42	Y42	Z42	X43	Y43	Z43	X44	Y44	Z44	X45	Y45	Z45	X46	Y46	Z46	X47	Y47	Z47	X48	Y48	Z48	X49	Y49	Z49	X50	Y50	Z50	X51	Y51	Z51	X52	Y52	Z52	X53	Y53	Z53	X54	Y54	Z54	X55	Y55	Z55	X56	Y56	Z56	X57	Y57	Z57	X58	Y58	Z58	X59	Y59	Z59	X60	Y60	Z60	X61	Y61	Z61	X62	Y62	Z62	X63	Y63	Z63	X64	Y64	Z64	X65	Y65	Z65	X66	Y66	Z66	X67	Y67	Z67	X68	Y68	Z68	X69	Y69	Z69	X70	Y70	Z70	X71	Y71	Z71	X72	Y72	Z72	X73	Y73	Z73	X74	Y74	Z74	X75	Y75	Z75	X76	Y76	Z76	X77	Y77	Z77	X78	Y78	Z78	X79	Y79	Z79	X80	Y80	Z80	X81	Y81	Z81	X82	Y82	Z82	X83	Y83	Z83	X84	Y84	Z84	X85	Y85	Z85	
204	6.8	686.3067733523485	1850.5265421210117	-2434.0010785918107	755.3295298575101	1734.4676078909004	-2650.930972312257	1191.2442583899663	1604.4593067252006	-2439.3128448724133	1134.0660150668368	1436.6097606944707	-2513.3291665639863	849.8598667803154	1432.2101069328446	-2408.1026174563676	1066.4811226348659	1380.9591325302977	-2252.2294344338907	808.3919482873206	1744.696103692978	-2428.2701164063687	555.865992973565	1634.7855121468579	-2559.947500153312	372.6638705108917	1503.1149145654588	-2715.7273950783933	1392.33914490145	1220.1985181018965	-2146.5471468841	1708.0714647346422	940.431045079239	-2084.1348872893946	1305.2848138241318	953.6704170788212	-2203.4808465213064	1206.933407751725	1240.8301528761417	-2287.9131467088773	1446.1868963535958	900.7166045174135	-2219.7876566922223	1050.4735656043051	962.920767191435	-2343.215297814029	1277.4797092606732	964.4574067022635	-2208.879435587045	1025.1823986108454	993.3572911141634	-2356.6054341757012	1084.5033205839545	969.379806580447	-2339.0040995084073	1099.121812271879	953.1451085985584	-2249.40419319177	806.1798663712506	902.9341920368736	-2370.627920641575	859.043130258733	949.0593658207137	-2445.580742705388	1166.5675284514682	1338.4655736394297	-2306.826478793517	1437.152487035593	1302.6609224911485	-2099.488841240881	1250.167999422133	1211.6155705882659	-2058.374331258728	1161.5681275784427	1226.6477762447064	-2133.28384665343	1101.2402575475307	1356.3221943252956	-2192.509156550504	1145.1562010635919	1376.535068395072	-2215.571504255799	312.15866916006564	1495.5753322472106	-2761.519229598453	324.9664488370892	1443.7061819849828	-2760.3793372672653	1456.0574219950634	927.8551070598764	-2268.6288298908435	1038.5830325741954	1378.3333171102358	-2232.640332066082	1053.5420937164163	977.5711345377209	-2400.708679663309	1306.8732535409192	953.5037204985617	-2244.9184278762596	1684.3434410230032	963.534748423188	-2044.8938181617043	1123.7674829609523	1405.8439417596796	-2365.05605184072	1027.0920039284215	945.6909246313677	-2318.8885219005756	1700.4944260947284	969.5012195185262	-2127.902869370508	541.7963512978632	1653.5560298358205	-2525.1374818249774	1116.7137175311536	1214.974865481747	-2201.4983092411126	861.5992297030467	1475.476259306216	-2396.3670242047883	1080.8016660635205	1381.1833691599734	-2287.106092264212	374.2506903506846	1539.3201346903993	-2727.6263576334036	588.0680653242833	1636.2797238528256	-2593.4002719470536	1432.7630120017357	936.1969607635099	-2175.1609466970585	851.8173648231216	1392.8444953844846	-2424.5747532065143	1272.5086749660725	933.2208775885846	-2164.6129985004213	394.2358261048523	1476.3185722161736	-2702.8997895559028	837.8787216421434	1698.0857496399294	-2677.0740331677525	1276.2977255467406	1529.7558297749513	-2256.8883528208153	738.1382450934144	1786.356446370872	-2646.8115013209876	715.4624442179502	1712.7657872157738	-2615.972297398296	775.8618746446733	1672.2078112500274	-2498.986576048574	836.7658506117482	1853.5390559110442	-2574.868343559037	1227.429463732291	1682.804641139096	-2456.115229885248	1270.827999471963	1615.0836093998146	-2333.3795142218064	1279.8259615165243	1386.405803041098	-2156.060345012937	1266.3267087688685	1514.1155890909258	-2257.094523814878	1012.3001446247928	1433.3805243007937	-2411.143676587938	949.7393302638233	1455.206062196471	-2489.1930653892546	773.0624305748576	1722.9070146037714	-2485.059608158103	599.0834225697052	1694.626203229647	-2495.5585919733535	1191.2784148255255	1233.8859837990162	-2230.8428522240474	1103.6209117307344	1314.3605972040361	-2316.307330877678	1058.1071570148824	1477.3204432105017	-2361.9100788118635	1078.2289046311182	1326.7855548061711	-2183.3212838709956	1183.99451299069	1424.7621225800829	-2492.380633262468	1556.1595922699544	1085.3470993741514	-2132.1777246870092	1562.1047620832064	1059.3334937957943	-2033.0787094900938	1351.9526134672215	1014.4926231265097	-2197.837468656718	1318.5843174044703	1173.2300738730833	-2358.0259370835206	1168.0861218629489	948.1468668405001	-2383.604583030508	1276.3073357551411	912.24959724295	-2219.4068659755753	1517.756114599207	925.745791503723	-2077.9926880117096	1510.2732979223285	957.1665768793381	-2187.2409760564283	1085.940178864714	969.1750628840363	-2307.6923426749563	1087.504865686936	959.7899486342936	-2278.789630969726	1163.9953215233077	964.1980666835599	-2304.13147231824	1156.7057101967616	945.7774903462981	-2268.0841309511893	1147.5115204997198	949.0210667569966	-2232.2654995030134	828.7374999503894	932.2004092845983	-2417.5703225974644	943.4574311679163	947.6060821482262	-2428.3954972798365	837.1681438511148	937.4523952961308	-2432.150189220255	818.9905303413168	926.0350529489782	-2399.586663904008	882.1224968108198	935.1224458226139	-2402.1428743476595	913.9360266101136	931.1354058266078	-2368.548015047629	
205	6.833333333333333	-368.84495952538566	1850.4657548829832	-2890.684574684201	-306.8157658430742	1648.2074347387008	-3033.9896582761644	101.74804332285967	1607.4064651918677	-2883.8588025801364	20.232016736340764	1432.3042787413854	-2893.2599769879034	-274.010624792967	1463.5054015064338	-2827.587485347673	-43.733031018630655	1429.581197082791	-2687.3403527192427	-253.4108746328793	1794.058216943713	-2957.258114505829	-528.7349796047522	1686.3692790099572	-3033.3393835522866	-765.4446465019965	1619.0945297877447	-3154.211966546218	210.8273722154083	1313.317560804743	-2488.4761058353984	581.1360246864596	1098.3914971903707	-2511.1287123638986	181.910894174731	1102.5018059492293	-2642.4992784638976	3.365634524660738	1327.7973331153419	-2595.878439218422	283.34792298907405	1031.0146052215314	-2701.4833807345617	-118.78724555332137	1105.0498654336989	-2793.6726807984137	152.86420240324028	1110.4211437604665	-2644.9656983473774	-147.68077542462254	1135.0555969528689	-2790.5479030196047	-38.53013738933042	1141.6289833685678	-2773.7710639587417	-21.467453058811454	1091.5779524936293	-2698.212027162762	-354.7285979894273	1042.2493164764537	-2860.213314638914	-308.6072735227608	1125.9210851974149	-2897.787779496089	-21.48751777372232	1417.6328622803833	-2649.092086437171	280.47855268328766	1391.8748021485048	-2488.966812252471	95.93735384327485	1378.532357993921	-2385.4806645952453	-4.061432391577135	1387.182860389971	-2445.5868336142175	-3.552578126620673	1412.6403384721689	-2628.3469099531967	38.081358080619964	1428.5780742239417	-2658.039437460038	-841.0461883054472	1617.0366331210544	-3163.947917398626	-828.9502086183077	1587.5733737743324	-3206.858882754623	289.08696628901663	1080.5637471155032	-2728.6448249491855	-69.62588047088514	1430.2494345723926	-2665.023429250037	-118.34674799305466	1147.6865017010357	-2835.0424921870253	183.6973860222883	1119.8006706597146	-2680.144753671936	551.0526960500841	1100.4916603876484	-2467.786398425302	0.6959171499028582	1461.4648724607343	-2749.6769519405616	-139.60624466869965	1075.2714935959943	-2782.940729721349	566.2674497724538	1142.4936109852777	-2539.8370965056565	-522.347134082111	1671.4241727954754	-2994.6371386945266	-42.21605757626007	1346.9562078363247	-2529.953891700529	-260.38378833601706	1507.4840289578365	-2822.32569975149	-32.850059355715054	1424.7233226785272	-2723.110053467613	-771.2230814644242	1651.0207331605588	-3134.1558328468336	-520.6515243862029	1722.0576387594333	-3061.962674821968	266.401176796613	1036.5049668238305	-2645.622899633077	-273.2055960671495	1421.7031498746635	-2836.3475147197696	152.6166752040677	1063.3078544448224	-2617.824362983816	-739.9738559787606	1602.581769342671	-3174.8640431365657	-228.24266622725892	1596.799739088798	-3036.2224031595306	167.9666975548006	1593.7448132891361	-2680.0897025106515	-318.0021734171834	1698.3615032730856	-3053.0788061597887	-350.0289894359785	1646.9630405431164	-2996.392699894627	-298.5174556641565	1653.9549095941018	-2868.813801695616	-214.6120182043639	1780.1869223995704	-3008.0032902613275	150.66678615513933	1668.217238231882	-2924.3395033423017	178.74816690400576	1644.9059502434627	-2782.2070058227137	145.11088891018017	1498.429945681678	-2534.7602361374015	155.59946874230513	1580.6831882949373	-2675.559093861923	-112.80114092087048	1455.0568311664176	-2809.2139785362356	-163.60870268768718	1465.308291258417	-2897.5056311626063	-312.7735337680213	1797.830945095164	-2994.8057751686865	-461.10726842292826	1706.6512107816873	-2965.4444503784116	35.28562132490583	1343.1309535587172	-2557.476316715425	-35.507346391922184	1398.0500085527462	-2673.3919389733614	-52.55265702640839	1537.5485077832334	-2778.0659567416233	-62.569776336470134	1461.8407833555045	-2556.418505109148	67.03206360790016	1423.6949975351058	-2869.5506102946188	400.08976723010323	1219.297524817322	-2512.3194082368414	410.6797061929771	1157.2442683446993	-2431.264401690678	176.2989002170651	1105.543777433604	-2628.5941507323114	121.33002318535867	1319.4440055491561	-2685.1315882278755	-0.8902286205647036	1126.2630115641423	-2830.177087534804	113.31547478850243	1022.19679788054	-2703.336179838156	395.5379966301727	1055.532359698211	-2524.9048546672884	383.6683220882777	1128.0977130482547	-2611.9211006170813	-37.05989750692659	1128.509143511122	-2745.34148790667	-34.00906961371877	1108.1923683124617	-2722.895631876188	40.79893561069384	1133.8090761299757	-2739.019430952764	36.544735156934685	1101.1198206479942	-2714.4189992481242	26.97436249008897	1087.665357538866	-2681.171237512929	-336.3640768147315	1093.8456412379649	-2884.0777450574014	-224.3913476578806	1124.7896057458695	-2879.6324365710148	-328.7956074881607	1106.7686964896086	-2893.402150636325	-345.08882374330153	1078.240473944191	-2872.382251905174	-283.4964633234041	1094.0207227324918	-2866.7143601045777	-251.00591624457425	1076.6008438372858	-2838.473894325773	
206	6.866666666666666	-774.9979839175618	1857.9486339315993	-3041.507889191066	-656.8378707581038	1634.1056634575154	-3076.5065769842786	-253.327592246278	1755.2539360220185	-2946.998984824116	-352.5970280528416	1568.2363259270924	-3091.1113868853195	-514.6350896753355	1482.922639015072	-2849.5945971474566	-271.36675757562676	1444.527848999731	-2734.728419584714	-660.7497036075645	1699.1782883653723	-2833.385074888606	-871.8689071580859	1603.6383028010034	-3032.1045321194883	-1064.6533637183898	1577.1143198123727	-3225.231876740357	-193.19092184416385	1305.606878509553	-2892.4170000210624	148.59240806838818	1125.7013168396566	-2691.155571926621	-253.52257625879443	1140.8753704243945	-2812.5191273499486	-349.97444276531246	1328.1189486548658	-3064.7464284228586	-178.6296642504888	1139.4294047834157	-2725.6716463053144	-540.660045566673	1180.532422552656	-2932.884883126437	-278.54432740459265	1150.2547229272704	-2823.6172765198016	-555.8859469562428	1180.1647618621157	-2971.8238172867927	-475.6738126604787	1127.230060541965	-2945.298728404254	-457.41402542871816	1161.7708341796667	-2861.758773553278	-783.6538173123971	1245.6184806444674	-2958.682887648266	-746.1076869518407	1160.4174877204846	-3001.938647501401	-413.2321096614586	1414.8090498817874	-3066.503601713518	-182.9335030812869	1376.390126703266	-2815.55813562424	-339.43236175223126	1237.0929361241006	-2847.9194948927225	-414.6215572441261	1254.975602091635	-2935.7496442348483	-225.11117608151415	1420.2664601825163	-2683.216343643589	-187.5694453757273	1445.7153227917229	-2711.712239878983	-1133.3553803726631	1560.4983751909253	-3253.842365948393	-1111.4349216043036	1575.788423479968	-3300.118226117717	-166.63627950682857	1116.2507378562466	-2778.587350639986	-295.256402055728	1438.2623967317038	-2711.0860791396262	-551.2856329147031	1127.5677143398482	-2957.610874755987	-255.28161778618218	1115.5581939564845	-2845.315017727094	121.78932046811435	1175.2327937375871	-2679.658348417319	-378.842426252992	1586.4812511323537	-3019.6423397400154	-559.4612690136514	1210.39692721309	-2919.1014769554313	131.268931261879	1126.401709460632	-2748.306857987739	-859.2277225856313	1568.4403633892707	-3013.043313874412	-471.5958279644445	1352.8708715804735	-3012.233420332318	-506.42606945631064	1527.0312450591446	-2837.9954768408825	-263.1727916667931	1447.9022011959808	-2771.375140822936	-1082.2514716782214	1581.5165013511419	-3191.6782083072526	-879.2969733238288	1649.1562889547508	-3026.5160759344644	-178.60486983214278	1200.0949282137713	-2731.9465333466214	-515.5152426011211	1446.4580143976116	-2871.8290503602107	-286.23719755437077	1154.5660627057866	-2770.740100890212	-1035.1582547910234	1588.7623540006948	-3243.7332967885322	-572.0814073947344	1604.8247550408453	-3048.570245345847	-241.11979446640368	1567.4977587249944	-2843.596931632206	-672.1062260565426	1668.4780250642684	-3116.3861451357016	-705.438677368145	1638.681597441153	-3046.515162966628	-679.8067270634131	1707.7286017918675	-2930.0925967528847	-592.8544760227938	1782.0726744789417	-3101.149961735196	-198.4138894532702	1811.5644828537377	-2907.714277706908	-206.7659020062487	1676.7478311472516	-2850.3702173992824	-296.2603972467575	1401.4439488289265	-2854.2558207009743	-253.6409489733422	1559.1888711664335	-2854.471851773072	-388.3459388224904	1527.2162221718493	-2941.717290614641	-487.44501870282585	1536.0068463205023	-2965.883671894229	-717.4815261288193	1710.8481101029622	-2873.301251716837	-816.5016152478894	1588.1542487040044	-2952.7994687122723	-389.5345486903677	1358.4188169158522	-3015.9473707824445	-430.5591743329985	1496.8615002558743	-3040.742166275329	-426.35036502598143	1660.8435989257969	-2979.1046684516855	-489.569383768956	1440.00924547941	-2932.2523575208575	-282.33089574054947	1652.0069604047394	-3100.8128248221947	-20.266352765003965	1212.0013035478225	-2811.4008649117422	-5.242953271693413	1255.8939102152433	-2719.856317941993	-244.24762374237613	1242.4628451201845	-2816.0342517152785	-261.1890141899225	1211.847030008536	-3041.3052618859842	-456.7428778985295	1097.5630033568316	-2890.9771233386086	-322.28217776447497	1205.032175602807	-2789.3305172804867	-40.1871462135236	1154.1619133483737	-2686.0969047891185	-50.577007097304005	1114.3772608828351	-2792.3403938072884	-471.5576319092459	1144.4952114401442	-2919.4626254050854	-469.6943285847347	1153.1420386135248	-2890.348095719677	-396.8734099437837	1123.6014376453552	-2908.7028489038735	-405.07537276800133	1131.3541613044824	-2869.1492148455845	-410.03610054929885	1156.4776753184017	-2842.2749056561415	-769.1328136167574	1196.459393967601	-2989.3663042578546	-667.7685451458682	1142.652634051461	-2970.784069555661	-764.8087778551537	1180.2790538871823	-2994.909853121074	-773.786315470981	1216.1881540043576	-2982.617381142802	-716.6318056292265	1189.7421302109708	-2972.1900161042654	-679.2343249558054	1207.5244531854908	-2951.170283315286	
207	6.8999999999999995	-841.7417514290352	1855.8545325980895	-3025.419496586373	-706.0986197460101	1643.9558552884077	-3070.05454224999	-314.7153692169668	1767.77280128634	-2977.5657014730255	-435.95058478060236	1564.9012594974354	-3076.2751328271415	-287.6278421108407	1487.0888447313457	-2823.667313412599	-50.87602686474535	1452.0733468161204	-2694.941352805581	-633.174147084498	1692.6504491677579	-2856.148506166828	-690.1009493925086	1490.0748673396236	-3077.30705214134	-871.7957812146415	1539.587972087951	-3276.563118930908	-239.4806117339856	1319.229345107518	-2856.4982500599162	134.50690565551875	1156.0523267853541	-2704.2004638225226	-264.6316057931512	1129.5330373263607	-2833.2004679805236	-405.746137704634	1340.4579587334379	-3019.870274792348	-192.81920706231952	1130.4124804869734	-2717.327708135142	-549.0851852312093	1188.885649497635	-2930.2789276310205	-290.58532415161767	1135.927154593856	-2841.5100924767044	-563.3497825160961	1207.298590452459	-2964.799924124219	-480.17208257629983	1125.7814835762001	-2976.233776948066	-468.5698529551651	1133.5385872329787	-2885.0711500639104	-799.1588232474784	1181.2893779960573	-2972.0589376608427	-730.8599913450499	1146.1455945752716	-3040.177700923202	-463.49867895366236	1430.8379745814316	-3023.8565568253694	-219.7491980212915	1394.1811515328393	-2785.6768837402906	-386.37415556451083	1263.710527060219	-2798.182774980233	-466.01935029278184	1280.5975478845417	-2882.1995083055626	-7.896635755906322	1438.6019915571787	-2637.036410858769	32.525098869244374	1448.4713881937212	-2670.766525514236	-912.2363163961518	1525.3825653865215	-3339.6296420270023	-932.9062523615622	1573.7832938314014	-3330.3630052639533	-181.1993794536426	1117.124408144803	-2774.7398662503006	-75.09576332591028	1456.8320993744437	-2671.283586489414	-542.6909056019267	1158.8361743511489	-2981.128512841387	-261.8929113094939	1115.6510525586418	-2872.1801309917164	98.62098672959941	1193.4991765704792	-2679.42359717168	-449.39342556581005	1592.6689375202347	-3004.3184165934676	-576.2615987139146	1199.644924663218	-2906.1742086839026	116.42795704325482	1170.8695656046682	-2759.1592115136355	-649.5905445971287	1499.7233923648128	-3082.583186651192	-537.1078069316195	1363.2937968386145	-2950.233971610555	-277.2075930505374	1532.2248282596963	-2824.954998328885	-42.77937734624998	1442.7994297132996	-2730.577685890174	-868.2754634592161	1501.766435737791	-3273.090364635069	-723.944889645374	1484.5718043844058	-3045.96063162386	-199.5039296515904	1192.1620871778714	-2716.578440749733	-304.8088319238075	1449.2631263347403	-2833.6092973274244	-298.7015515333671	1123.150727450461	-2790.7543436405226	-872.3844235635676	1570.1783182723718	-3256.2696491588144	-620.0579981789949	1619.4324315344986	-3041.469905944241	-282.6744587023783	1594.9695505705536	-2854.2538462457933	-722.9721749205003	1679.4428475300272	-3108.2765043831073	-755.6139908942924	1643.07970141016	-3041.2461604110736	-738.1133958930463	1706.6817439632491	-2920.3031615740065	-652.9751690980278	1797.494150976334	-3084.1718476922315	-254.30156958449192	1827.9839337825388	-2956.2473293563935	-251.1179194057655	1701.9287201620662	-2881.1901882288885	-337.20306264805777	1429.7025931589835	-2833.243612743571	-296.83129307567265	1585.4818771635778	-2861.578387498821	-316.0319470582161	1531.844893040553	-2977.2497497311124	-382.98401107278545	1533.867411887276	-2899.82076787092	-670.5112397979864	1639.210088356815	-2882.5692355786655	-626.5495903529043	1539.4700873916481	-3021.486598658753	-457.03736413490816	1367.204007820071	-2968.9972634834494	-503.1358955268648	1501.7666692795904	-3004.097034244426	-489.75575378828296	1672.3186329012406	-2966.149393872599	-541.5849624677901	1460.3588883483364	-2880.43828112057	-369.30919224151404	1645.7354731748478	-3109.042817343518	-50.10129870526242	1240.6428037701105	-2800.0344942463516	-42.530495004274805	1256.3961306458	-2698.904957730248	-274.9008694701096	1236.7890449997683	-2790.730258029689	-303.01227994146507	1233.7401990346107	-3016.942149866013	-443.72130797742665	1121.3640753968195	-2925.6349764504066	-349.52297134827757	1181.610642233048	-2759.929333976592	-56.057058688091324	1144.4715506091372	-2699.2429545163245	-60.14808409165035	1137.9496185080739	-2812.9055017891997	-479.1187980692403	1134.1161228399935	-2946.035151519299	-478.99391888712324	1133.0065441263473	-2915.627116421383	-402.2392197907526	1121.75358320095	-2937.8648613331875	-412.0511847924986	1114.9787405061757	-2898.498711727375	-421.1979387650573	1129.026388992411	-2865.3772876228745	-766.1983774507495	1161.6109342956977	-3017.8335515039184	-652.5326981189295	1141.082562296132	-3004.647154462937	-755.8947703600317	1152.7120004668222	-3029.053011473718	-778.1892918154352	1172.662758067858	-3004.031298814015	-715.5782622483591	1164.2506220456705	-2994.874058210349	-688.3449999974025	1179.9276158307089	-2960.6805934744725	
